{
  "ffprobe": {
    "audio_streams": [
      {
        "avg_frame_rate": "0/0",
        "bit_rate": "1536000",
        "bits_per_sample": 16,
        "channel_layout": "stereo",
        "channels": 2,
        "codec_long_name": "PCM signed 16-bit little-endian",
        "codec_name": "pcm_s16le",
        "codec_tag": "0x74776f73",
        "codec_tag_string": "sowt",
        "codec_time_base": "1/48000",
        "codec_type": "audio",
        "disposition": {
          "attached_pic": 0,
          "clean_effects": 0,
          "comment": 0,
          "default": 1,
          "dub": 0,
          "forced": 0,
          "hearing_impaired": 0,
          "karaoke": 0,
          "lyrics": 0,
          "original": 0,
          "timed_thumbnails": 0,
          "visual_impaired": 0
        },
        "duration": "80.640000",
        "duration_ts": 3870720,
        "index": 1,
        "nb_frames": "3870720",
        "r_frame_rate": "0/0",
        "sample_fmt": "s16",
        "sample_rate": "48000",
        "start_pts": 0,
        "start_time": "0.000000",
        "tags": {
          "creation_time": "2019-12-02T11:20:10.000000Z",
          "handler_name": "Apple Sound Media Handler",
          "language": "eng",
          "timecode": "00:00:00:00"
        },
        "time_base": "1/48000"
      }
    ],
    "data_streams": [
      {
        "avg_frame_rate": "25/1",
        "codec_tag": "0x64636d74",
        "codec_tag_string": "tmcd",
        "codec_type": "data",
        "disposition": {
          "attached_pic": 0,
          "clean_effects": 0,
          "comment": 0,
          "default": 1,
          "dub": 0,
          "forced": 0,
          "hearing_impaired": 0,
          "karaoke": 0,
          "lyrics": 0,
          "original": 0,
          "timed_thumbnails": 0,
          "visual_impaired": 0
        },
        "duration": "80.640000",
        "duration_ts": 2016,
        "index": 2,
        "nb_frames": "1",
        "r_frame_rate": "0/0",
        "start_pts": 0,
        "start_time": "0.000000",
        "tags": {
          "creation_time": "2019-12-02T11:20:10.000000Z",
          "handler_name": "Time Code Media Handler",
          "language": "eng",
          "timecode": "00:00:00:00"
        },
        "time_base": "1/25"
      }
    ],
    "format": {
      "bit_rate": "159818538",
      "duration": "80.640000",
      "filename": "/mnt/archive2/NOFOTBALL/201912/9470479004/9470479004_original.mov",
      "filename_extension": "mov",
      "format_long_name": "QuickTime / MOV",
      "format_name": "mov,mp4,m4a,3gp,3g2,mj2",
      "nb_programs": 0,
      "probe_score": 100,
      "size": "1610970868",
      "start_time": "0.000000",
      "streams_attachment_count": 0,
      "streams_audio_count": 1,
      "streams_count": 3,
      "streams_data_count": 1,
      "streams_image_count": 0,
      "streams_subtitle_count": 0,
      "streams_video_count": 1
    },
    "video_streams": [
      {
        "avg_frame_rate": "25/1",
        "bit_rate": "158178512",
        "bits_per_raw_sample": "10",
        "codec_long_name": "Apple ProRes (iCodec Pro)",
        "codec_name": "prores",
        "codec_tag": "0x68637061",
        "codec_tag_string": "apch",
        "codec_time_base": "1/25",
        "codec_type": "video",
        "coded_height": 1080,
        "coded_width": 1920,
        "color_primaries": "bt709",
        "color_range": "tv",
        "color_space": "bt709",
        "color_transfer": "bt709",
        "display_aspect_ratio": "16:9",
        "disposition": {
          "attached_pic": 0,
          "clean_effects": 0,
          "comment": 0,
          "default": 1,
          "dub": 0,
          "forced": 0,
          "hearing_impaired": 0,
          "karaoke": 0,
          "lyrics": 0,
          "original": 0,
          "timed_thumbnails": 0,
          "visual_impaired": 0
        },
        "duration": "80.640000",
        "duration_ts": 2016,
        "field_order": "progressive",
        "has_b_frames": 0,
        "height": 1080,
        "index": 0,
        "level": -99,
        "nb_frames": "2016",
        "pix_fmt": "yuv422p10le",
        "r_frame_rate": "25/1",
        "refs": 1,
        "sample_aspect_ratio": "1:1",
        "start_pts": 0,
        "start_time": "0.000000",
        "tags": {
          "creation_time": "2019-12-02T11:20:10.000000Z",
          "encoder": "Apple ProRes 422 HQ",
          "handler_name": "Apple Video Media Handler",
          "language": "eng",
          "timecode": "00:00:00:00"
        },
        "time_base": "1/25",
        "width": 1920
      }
    ]
  },
  "mediainfo": {
    "audio_streams": [
      {
        "BitDepth": 16,
        "BitRate": 1536000,
        "BitRate_Mode": "CBR",
        "ChannelLayout": "L R",
        "ChannelPositions": "Front: L R",
        "Channels": 2,
        "CodecID": "sowt",
        "Delay": "0.000",
        "Delay_DropFrame": "No",
        "Delay_Source": "Container",
        "Duration": "80.640",
        "Encoded_Date": "UTC 2019-12-02 11:20:10",
        "Format": "PCM",
        "Format_Settings_Endianness": "Little",
        "Format_Settings_Sign": "Signed",
        "ID": 2,
        "Language": "en",
        "SamplingCount": 3870720,
        "SamplingRate": 48000,
        "StreamOrder": 1,
        "StreamSize": 15482880,
        "StreamSize_Proportion": "0.00961",
        "Tagged_Date": "UTC 2019-12-02 11:20:10",
        "extra": {
          "Menus": 0
        }
      }
    ],
    "format": {
      "AudioCount": 1,
      "CodecID": "qt  ",
      "CodecID_Compatible": "qt  ",
      "CodecID_Version": "2005.03",
      "DataSize": 1609922300,
      "Duration": "80.640",
      "Encoded_Date": "UTC 2019-12-02 11:20:10",
      "Encoded_Library": "Apple QuickTime",
      "Encoded_Library_Name": "Apple QuickTime",
      "FileExtension": "mov",
      "FileSize": 1610970868,
      "File_Modified_Date": "UTC 2019-12-12 10:50:17",
      "File_Modified_Date_Local": "2019-12-12 10:50:17",
      "FooterSize": 0,
      "Format": "MPEG-4",
      "Format_Profile": "QuickTime",
      "FrameCount": 2016,
      "FrameRate": "25.000",
      "HeaderSize": 1048568,
      "IsStreamable": "Yes",
      "OtherCount": 1,
      "OverallBitRate": 159818544,
      "OverallBitRate_Mode": "VBR",
      "StreamSize": 1048580,
      "Tagged_Date": "UTC 2019-12-02 11:21:14",
      "VideoCount": 1,
      "extra": {
        "TIM": "00:00:00:00",
        "TSC": 25,
        "TSZ": 1
      },
      "filename": "/mnt/archive2/NOFOTBALL/201912/9470479004/9470479004_original.mov",
      "streams_attachment_count": 0,
      "streams_audio_count": 1,
      "streams_count": 2,
      "streams_data_count": 0,
      "streams_image_count": 0,
      "streams_other_count": 0,
      "streams_subtitle_count": 0,
      "streams_video_count": 1
    },
    "other_streams": [
      {
        "Duration": "80.640",
        "Format": "QuickTime TC",
        "ID": 3,
        "Language": "en",
        "StreamOrder": 2,
        "TimeCode_FirstFrame": "00:00:00:00",
        "TimeCode_Striped": "Yes",
        "Type": "Time code",
        "extra": {
          "Encoded_Date": "UTC 2019-12-02 11:20:10",
          "Tagged_Date": "UTC 2019-12-02 11:20:10"
        }
      }
    ],
    "video_streams": [
      {
        "BitRate": 158178513,
        "BitRate_Mode": "VBR",
        "ChromaSubsampling": "4:2:2",
        "CodecID": "apch",
        "ColorSpace": "YUV",
        "Delay": "0.000",
        "DisplayAspectRatio": "1.778",
        "Duration": "80.640",
        "Encoded_Date": "UTC 2019-12-02 11:20:10",
        "Encoded_Library": "Apple",
        "Format": "ProRes",
        "Format_Profile": "422 HQ",
        "Format_Version": 0,
        "FrameCount": 2016,
        "FrameRate": "25.000",
        "FrameRate_Mode": "CFR",
        "Height": 1080,
        "ID": 1,
        "Language": "en",
        "PixelAspectRatio": "1.000",
        "Rotation": "0.000",
        "Sampled_Height": 1080,
        "Sampled_Width": 1920,
        "ScanType": "Progressive",
        "StreamOrder": 0,
        "StreamSize": 1594439408,
        "Tagged_Date": "UTC 2019-12-02 11:20:10",
        "Width": 1920,
        "colour_description_present": "Yes",
        "colour_description_present_Source": "Container / Stream",
        "colour_primaries": "BT.709",
        "colour_primaries_Source": "Container / Stream",
        "extra": {
          "Menus": 0
        },
        "matrix_coefficients": "BT.709",
        "matrix_coefficients_Source": "Container / Stream",
        "transfer_characteristics": "BT.709",
        "transfer_characteristics_Source": "Container / Stream"
      }
    ]
  }
}
